<svg width="20" height="18" viewBox="0 0 20 18" fill="none" xmlns="http://www.w3.org/2000/svg">
<path d="M2 18C1.45 18 0.979167 17.8042 0.5875 17.4125C0.195833 17.0208 0 16.55 0 16V9H2V16H11V18H2ZM6 14C5.45 14 4.97917 13.8042 4.5875 13.4125C4.19583 13.0208 4 12.55 4 12V5H6V12H15V14H6ZM10 10C9.45 10 8.97917 9.80417 8.5875 9.4125C8.19583 9.02083 8 8.55 8 8V2C8 1.45 8.19583 0.979167 8.5875 0.5875C8.97917 0.195833 9.45 0 10 0H18C18.55 0 19.0208 0.195833 19.4125 0.5875C19.8042 0.979167 20 1.45 20 2V8C20 8.55 19.8042 9.02083 19.4125 9.4125C19.0208 9.80417 18.55 10 18 10H10ZM10 8H18V4H10V8Z" fill="#FFB59E"/>
</svg>
